<svg xmlns="http://www.w3.org/2000/svg" width="19.5" height="19.5" viewBox="0 0 19.5 19.5">
  <g id="icono_llamada" transform="translate(0.75 0.75)">
    <path id="Path_103080" data-name="Path 103080" d="M5,4H9l2,5L8.5,10.5a11,11,0,0,0,5,5L15,13l5,2v4a2,2,0,0,1-2,2A16,16,0,0,1,3,6,2,2,0,0,1,5,4" transform="translate(-3 -3)" fill="none" stroke="#2a437c" stroke-linecap="round" stroke-linejoin="round" stroke-width="1.5"/>
    <path id="Path_103081" data-name="Path 103081" d="M15,7a2,2,0,0,1,2,2" transform="translate(-3 -3)" fill="none" stroke="#2a437c" stroke-linecap="round" stroke-linejoin="round" stroke-width="1.5"/>
    <path id="Path_103082" data-name="Path 103082" d="M15,3a6,6,0,0,1,6,6" transform="translate(-3 -3)" fill="none" stroke="#2a437c" stroke-linecap="round" stroke-linejoin="round" stroke-width="1.5"/>
  </g>
</svg>
