<svg xmlns="http://www.w3.org/2000/svg" width="19.753" height="19.72" viewBox="0 0 19.753 19.72">
  <g id="icono_whatsApp" transform="translate(0.987 0.75)">
    <path id="Path_102982" data-name="Path 102982" d="M3,21l1.65-3.8a9,9,0,1,1,3.4,2.9L3,21" transform="translate(-3 -3.017)" fill="none" stroke="#25d366" stroke-linecap="round" stroke-linejoin="round" stroke-width="1.5"/>
    <path id="Path_102983" data-name="Path 102983" d="M9,10a.5.5,0,0,0,1,0V9A.5.5,0,0,0,9,9v1a5,5,0,0,0,5,5h1a.5.5,0,0,0,0-1H14a.5.5,0,0,0,0,1" transform="translate(-3 -3.017)" fill="none" stroke="#25d366" stroke-linecap="round" stroke-linejoin="round" stroke-width="1.5"/>
  </g>
</svg>
